# xmcd
#
# Track frame offsets:
#	150
#	11062
#	20755
#	32990
#	43595
#	66112
#	82777
#	99080
#	111972
#	130057
#	144915
#	158755
#	170180
#	183022
#	200930
#	214080
#
# Disc length: 2982 seconds
#
# Revision: 0
# Processed by: cddbd v1.4PL0 Copyright (c) Steve Scherf et al.
# Submitted via: audiograbber 1.80
#
DISCID=d80ba410
DTITLE=Brian Fraser - Finger Pickin' Blues
DYEAR=1900
DGENRE=
TTITLE0=dot com
TTITLE1=finger pickin' blues
TTITLE2=highly strung
TTITLE3=half way there
TTITLE4=the ship song
TTITLE5=driftin' blues
TTITLE6=take my time
TTITLE7=every game
TTITLE8=well's station
TTITLE9=amazing grace
TTITLE10=blood on the ducati
TTITLE11=hat's lament
TTITLE12=no one's allowed
TTITLE13=whispering rain
TTITLE14=10 o'clock call
TTITLE15=writers curse
EXTD=
EXTT0=
EXTT1=
EXTT2=
EXTT3=
EXTT4=
EXTT5=
EXTT6=
EXTT7=
EXTT8=
EXTT9=
EXTT10=
EXTT11=
EXTT12=
EXTT13=
EXTT14=
EXTT15=
PLAYORDER=
